<?xml version="1.0" encoding="utf-8"?>
<!-- Generator: Adobe Illustrator 26.2.1, SVG Export Plug-In . SVG Version: 6.00 Build 0)  -->
<svg version="1.1" id="Layer_1" xmlns="http://www.w3.org/2000/svg" xmlns:xlink="http://www.w3.org/1999/xlink" x="0px" y="0px"
	 viewBox="0 0 841.9 595.3" style="enable-background:new 0 0 841.9 595.3;" xml:space="preserve">
<style type="text/css">
	.st0{font-family:'ArialMT';}
	.st1{font-size:20px;}
	.st2{fill:none;stroke:#000000;stroke-miterlimit:10;}
	.st3{fill:#D04544;}
	.st4{fill:#009FE3;}
	.st5{fill:none;stroke:#000000;stroke-width:3;stroke-miterlimit:10;}
	.st6{fill:none;stroke:#6CB530;stroke-width:6;stroke-linecap:round;stroke-miterlimit:10;}
	.st7{fill:none;stroke:#E84517;stroke-width:5;stroke-linecap:round;stroke-miterlimit:10;}
</style>
<text transform="matrix(1 0 0 1 74.6707 323.1015)" class="st0 st1">Kevin</text>
<text transform="matrix(1 0 0 1 73.5673 512.7883)" class="st0 st1">David</text>
<text transform="matrix(1 0 0 1 62.4537 116.5942)" class="st0 st1">GitHub</text>
<rect x="174.7" y="245.2" class="st2" width="539.8" height="144"/>
<circle cx="220.5" cy="342.8" r="9.3"/>
<circle cx="301.8" cy="342.8" r="9.3"/>
<circle class="st3" cx="383.2" cy="342.8" r="9.3"/>
<g>
	<g>
		<line class="st2" x1="229.8" y1="342.8" x2="367.8" y2="342.8"/>
		<g>
			<path d="M373.9,342.8c-2.8,1.1-6.4,2.9-8.5,4.8l1.7-4.8l-1.7-4.8C367.5,339.9,371,341.7,373.9,342.8z"/>
		</g>
	</g>
</g>
<text transform="matrix(1 0 0 1 207.7151 319.0515)" class="st0 st1">C1</text>
<text transform="matrix(1 0 0 1 289.0564 319.251)" class="st0 st1">C2</text>
<text transform="matrix(1 0 0 1 362.0579 319.0518)" class="st0 st1">C3.1</text>
<text transform="matrix(1 0 0 1 187.5275 268.5488)" class="st0 st1">master</text>
<rect x="177.7" y="426.6" class="st2" width="539.8" height="144"/>
<circle cx="220.5" cy="524.1" r="9.3"/>
<circle cx="301.8" cy="524.1" r="9.3"/>
<circle class="st4" cx="383.2" cy="524.1" r="9.3"/>
<g>
	<g>
		<line class="st2" x1="229.8" y1="524.1" x2="367.8" y2="524.1"/>
		<g>
			<path d="M373.9,524.1c-2.8,1.1-6.4,2.9-8.5,4.8l1.7-4.8l-1.7-4.8C367.5,521.3,371,523.1,373.9,524.1z"/>
		</g>
	</g>
</g>
<text transform="matrix(1 0 0 1 207.7151 500.4083)" class="st0 st1">C1</text>
<text transform="matrix(1 0 0 1 289.0564 500.6078)" class="st0 st1">C2</text>
<text transform="matrix(1 0 0 1 362.0579 500.4086)" class="st0 st1">C3.2</text>
<text transform="matrix(1 0 0 1 187.5275 449.9056)" class="st0 st1">master</text>
<rect x="177.7" y="34.9" class="st2" width="539.8" height="144"/>
<circle cx="220.5" cy="132.4" r="9.3"/>
<circle cx="301.8" cy="132.4" r="9.3"/>
<circle class="st3" cx="383.2" cy="132.4" r="9.3"/>
<g>
	<g>
		<line class="st2" x1="229.8" y1="132.4" x2="367.8" y2="132.4"/>
		<g>
			<path d="M373.9,132.4c-2.8,1.1-6.4,2.9-8.5,4.8l1.7-4.8l-1.7-4.8C367.5,129.6,371,131.4,373.9,132.4z"/>
		</g>
	</g>
</g>
<text transform="matrix(1 0 0 1 207.7151 108.7343)" class="st0 st1">C1</text>
<text transform="matrix(1 0 0 1 289.0564 108.9338)" class="st0 st1">C2</text>
<text transform="matrix(1 0 0 1 362.0579 108.7346)" class="st0 st1">C3.1</text>
<text transform="matrix(1 0 0 1 187.5275 58.2316)" class="st0 st1">master</text>
<g>
	<g>
		<path class="st5" d="M738.8,323.3c3.8-2.5,63.3-42.6,62.2-116.2c-0.8-52-31.3-86.4-49.4-102.2"/>
		<g>
			<polygon points="761,98.3 738.8,95 747,115.9 			"/>
		</g>
	</g>
</g>
<g>
	<g>
		<path class="st5" d="M748.9,524.1c11.8-21,23.8-45.9,34.3-74.7c19.2-53,26.3-101.1,28.7-138.3"/>
		<g>
			
				<rect x="810.3" y="301.3" transform="matrix(7.448319e-02 -0.9972 0.9972 7.448319e-02 441.1154 1097.4858)" width="3" height="19.5"/>
		</g>
	</g>
</g>
<path class="st6" d="M771.7,85.9c0.5,0.6,1.1,1.6,1.8,2.8c0.7,1.3,1.2,2.5,2,4.7c1,2.8,1.7,5.2,2.1,6.9c2.6-6.7,7.8-16.9,18.5-23.3
	c1.4-0.8,2.7-1.5,4.1-2.1"/>
<g>
	<path class="st7" d="M800.9,268.8c7.3,9.3,14.7,18.7,22,28"/>
	<path class="st7" d="M822.9,268.8c-7.3,9.3-14.7,18.7-22,28"/>
</g>
</svg>
