<?xml version="1.0" encoding="utf-8"?>
<!-- Generator: Adobe Illustrator 26.2.1, SVG Export Plug-In . SVG Version: 6.00 Build 0)  -->
<svg version="1.1" id="Layer_1" xmlns="http://www.w3.org/2000/svg" xmlns:xlink="http://www.w3.org/1999/xlink" x="0px" y="0px"
	 viewBox="0 0 799.1 337.1" style="enable-background:new 0 0 799.1 337.1;" xml:space="preserve">
<style type="text/css">
	.st0{font-family:'ArialMT';}
	.st1{font-size:20px;}
	.st2{fill:none;stroke:#000000;stroke-miterlimit:10;}
	.st3{fill:#D04544;}
	.st4{fill:#929290;}
	.st5{font-family:'Courier';}
	.st6{font-size:12px;}
	.st7{fill:none;stroke:#B9B7BB;stroke-miterlimit:10;}
</style>
<text transform="matrix(1 0 0 1 56.0611 146.9243)" class="st0 st1">GitHub</text>
<rect x="189.3" y="30.3" class="st2" width="539.8" height="221.5"/>
<circle cx="233" cy="90.9" r="9.3"/>
<circle cx="314.3" cy="90.9" r="9.3"/>
<g>
	<g>
		<line class="st2" x1="242.3" y1="90.9" x2="299" y2="90.9"/>
		<g>
			<path d="M305,90.9c-2.8,1.1-6.4,2.9-8.5,4.8l1.7-4.8l-1.7-4.8C298.7,88,302.2,89.8,305,90.9z"/>
		</g>
	</g>
</g>
<text transform="matrix(1 0 0 1 220.202 67.1601)" class="st0 st1">C1</text>
<text transform="matrix(1 0 0 1 301.5432 67.3596)" class="st0 st1">C2</text>
<text transform="matrix(1 0 0 1 631.9427 91.0849)" class="st0 st1">master</text>
<circle class="st3" cx="400.1" cy="140.9" r="9.3"/>
<g>
	<g>
		<line class="st2" x1="314.3" y1="91.7" x2="386.8" y2="133.3"/>
		<g>
			<path d="M392,136.3c-3-0.5-6.9-0.7-9.8-0.1l3.9-3.3l0.9-5C387.9,130.7,390.1,134,392,136.3z"/>
		</g>
	</g>
</g>
<text transform="matrix(1 0 0 1 378.953 117.2349)" class="st0 st1">C3.1</text>
<text transform="matrix(1 0 0 1 640.5593 150.2516)" class="st4 st0 st1">kevin</text>
<circle class="st3" cx="400.8" cy="214.3" r="9.3"/>
<g>
	<g>
		<line class="st2" x1="314.3" y1="91.7" x2="391.5" y2="204.4"/>
		<g>
			<path d="M394.9,209.4c-2.5-1.7-5.9-3.6-8.8-4.4l4.9-1.3l3-4.1C393.6,202.6,394.1,206.5,394.9,209.4z"/>
		</g>
	</g>
</g>
<text transform="matrix(1 0 0 1 379.6729 190.5834)" class="st0 st1">C3.2</text>
<text transform="matrix(1 0 0 1 640.7176 223.6002)" class="st4 st0 st1">david</text>
<circle cx="473.2" cy="90.9" r="9.3"/>
<text transform="matrix(1 0 0 1 460.42 67.5591)" class="st0 st1">C3</text>
<circle cx="559.2" cy="90.9" r="9.3"/>
<text transform="matrix(1 0 0 1 546.4579 67.1598)" class="st0 st1">C4</text>
<text transform="matrix(1 0 0 1 390.7411 273.0423)" class="st5 st6">git checkout master</text>
<text transform="matrix(1 0 0 1 390.7411 287.4423)" class="st5 st6">git branch -d kevin</text>
<text transform="matrix(1 0 0 1 390.7411 301.8423)" class="st5 st6">git branch -d david</text>
<line class="st7" x1="623.5" y1="144.9" x2="699.2" y2="144.9"/>
<line class="st7" x1="623.5" y1="217.5" x2="699.2" y2="217.5"/>
<g>
	<g>
		<line class="st2" x1="407.4" y1="135.1" x2="460.3" y2="99.1"/>
		<g>
			<path d="M465.2,95.7c-1.8,2.5-3.7,5.9-4.4,8.7l-1.3-4.9l-4.1-3C458.4,96.9,462.3,96.4,465.2,95.7z"/>
		</g>
	</g>
</g>
<g>
	<g>
		<line class="st2" x1="408.7" y1="209.4" x2="546.5" y2="99.5"/>
		<g>
			<path d="M551.2,95.7c-1.6,2.6-3.2,6.2-3.7,9l-1.6-4.8l-4.3-2.6C544.5,97.4,548.4,96.6,551.2,95.7z"/>
		</g>
	</g>
</g>
<g>
	<g>
		<line class="st2" x1="323.6" y1="90.9" x2="457.9" y2="90.9"/>
		<g>
			<path d="M463.9,90.9c-2.8,1.1-6.4,2.9-8.5,4.8l1.7-4.8l-1.7-4.8C457.5,88,461.1,89.8,463.9,90.9z"/>
		</g>
	</g>
</g>
<g>
	<g>
		<line class="st2" x1="482.5" y1="90.9" x2="543.9" y2="90.9"/>
		<g>
			<path d="M549.9,90.9c-2.8,1.1-6.4,2.9-8.5,4.8l1.7-4.8l-1.7-4.8C543.5,88,547.1,89.8,549.9,90.9z"/>
		</g>
	</g>
</g>
</svg>
